<?xml version="1.0" encoding="utf-8"?>
<!-- Generator: Adobe Illustrator 23.0.3, SVG Export Plug-In . SVG Version: 6.00 Build 0)  -->
<svg version="1.2" baseProfile="tiny" id="Layer_1" xmlns="http://www.w3.org/2000/svg" xmlns:xlink="http://www.w3.org/1999/xlink"
	viewBox="0 0 100 35.091" xml:space="preserve">
<g>
	<path d="M72.686,12.689c-0.048-0.093-0.102-0.182-0.179-0.259c-0.683-0.686-1.365-1.373-2.052-2.054
		c-0.881-0.874-1.771-1.738-2.648-2.616c-1.279-1.278-2.548-2.566-3.824-3.847c-1.185-1.19-2.373-2.377-3.565-3.56
		c-0.111-0.11-0.264-0.177-0.401-0.265c-0.057,0.034-0.098,0.078-0.147,0.116c-0.105-0.005-0.208-0.003-0.314,0.025
		c-0.935,0.249-1.871,0.496-2.805,0.75c-1.197,0.326-2.391,0.664-3.589,0.986c-1.747,0.468-3.496,0.923-5.244,1.388
		c-1.623,0.432-3.245,0.866-4.865,1.308c-0.15,0.041-0.285,0.141-0.43,0.215c0.001,0.067,0.019,0.123,0.027,0.186
		c-0.056,0.088-0.107,0.179-0.135,0.284c-0.252,0.934-0.506,1.868-0.753,2.804c-0.316,1.2-0.62,2.403-0.941,3.601
		c-0.468,1.747-0.949,3.49-1.42,5.235c-0.438,1.621-0.872,3.243-1.3,4.867c-0.04,0.151-0.021,0.317-0.029,0.48
		c0.058,0.032,0.116,0.046,0.174,0.069c0.048,0.093,0.102,0.182,0.178,0.259c0.683,0.686,1.365,1.373,2.052,2.054
		c0.881,0.874,1.771,1.738,2.648,2.616c1.279,1.278,2.548,2.566,3.824,3.847c1.185,1.19,2.373,2.377,3.565,3.56
		c0.111,0.11,0.264,0.177,0.401,0.265c0.057-0.034,0.098-0.078,0.147-0.116c0.105,0.005,0.208,0.003,0.314-0.025
		c0.935-0.249,1.871-0.496,2.805-0.75c1.197-0.326,2.391-0.664,3.589-0.986c1.747-0.468,3.496-0.923,5.244-1.388
		c1.623-0.432,3.245-0.866,4.865-1.308c0.15-0.041,0.285-0.141,0.43-0.215c-0.001-0.067-0.019-0.123-0.027-0.186
		c0.056-0.088,0.107-0.179,0.135-0.284c0.252-0.934,0.506-1.868,0.753-2.804c0.316-1.2,0.62-2.403,0.941-3.601
		c0.468-1.747,0.949-3.49,1.42-5.235c0.438-1.621,0.872-3.243,1.3-4.867c0.04-0.151,0.021-0.317,0.029-0.48
		C72.802,12.726,72.744,12.712,72.686,12.689z M67.603,9.053c0.096,0.008,0.193,0.016,0.289,0.024
		c-0.003,0.037-0.006,0.074-0.009,0.111c-0.096-0.009-0.193-0.017-0.289-0.026C67.597,9.125,67.6,9.089,67.603,9.053z M64.348,5.284
		c0.063,0.062,0.125,0.124,0.188,0.186c-0.025,0.024-0.051,0.048-0.076,0.072c-0.058-0.068-0.115-0.135-0.173-0.203
		C64.308,5.321,64.328,5.302,64.348,5.284z M54.345,2.549c0.03,0.021,0.061,0.042,0.091,0.063c-0.056,0.079-0.111,0.158-0.167,0.237
		c-0.03-0.021-0.06-0.042-0.09-0.062C54.235,2.708,54.29,2.629,54.345,2.549z M42.019,10.971c0.041,0.088,0.081,0.175,0.122,0.263
		c-0.033,0.016-0.066,0.031-0.099,0.047c-0.041-0.087-0.082-0.175-0.124-0.262C41.952,11.002,41.985,10.986,42.019,10.971z
		 M40.473,15.728c0.034,0.01,0.067,0.02,0.101,0.03c-0.03,0.084-0.059,0.167-0.089,0.251c-0.026-0.008-0.053-0.017-0.079-0.025
		C40.428,15.898,40.45,15.813,40.473,15.728z M69.992,16.878c-0.186,0.705-0.324,1.422-0.517,2.124
		c-0.27,0.984-0.587,1.955-0.856,2.939c-0.351,1.281-0.67,2.571-1.014,3.854c-0.276,1.03-0.561,2.059-0.842,3.087
		c-1.153,0.3-2.306,0.596-3.456,0.909c-0.703,0.192-1.393,0.43-2.098,0.614c-0.987,0.258-1.986,0.47-2.973,0.728
		c-1.285,0.337-2.562,0.705-3.845,1.049c-1.03,0.276-2.063,0.544-3.095,0.814c-0.836-0.848-1.67-1.699-2.515-2.538
		c-0.517-0.513-1.069-0.992-1.581-1.51c-0.717-0.726-1.4-1.485-2.117-2.211c-0.934-0.945-1.892-1.866-2.831-2.805
		c-0.754-0.754-1.502-1.515-2.253-2.273c0.316-1.148,0.637-2.296,0.94-3.447c0.186-0.705,0.324-1.422,0.517-2.124
		c0.27-0.984,0.587-1.955,0.856-2.939c0.351-1.281,0.67-2.571,1.014-3.854c0.276-1.03,0.56-2.059,0.842-3.087
		c1.153-0.3,2.306-0.596,3.456-0.909c0.703-0.192,1.393-0.43,2.098-0.614c0.987-0.258,1.986-0.47,2.973-0.728
		c1.285-0.337,2.562-0.705,3.845-1.049c1.03-0.276,2.063-0.544,3.095-0.814c0.836,0.848,1.67,1.699,2.515,2.538
		c0.517,0.513,1.069,0.992,1.581,1.51c0.717,0.726,1.4,1.485,2.117,2.211c0.934,0.945,1.892,1.866,2.831,2.805
		c0.754,0.754,1.502,1.515,2.253,2.273C70.616,14.579,70.296,15.726,69.992,16.878z M70.458,19.363
		c-0.034-0.01-0.067-0.02-0.101-0.03c0.03-0.084,0.059-0.167,0.089-0.251c0.026,0.008,0.053,0.017,0.079,0.025
		C70.504,19.193,70.481,19.278,70.458,19.363z M70.726,17.344c0.001-0.007,0.001-0.015,0.002-0.022
		c0.03,0.003,0.06,0.005,0.153,0.014C70.788,17.341,70.757,17.343,70.726,17.344z"/>
	<path d="M45.214,16.017c-0.24,0.158-0.426,0.362-0.566,0.753c0.027,0.565-0.1,1.191,0.099,1.824
		c0.102-0.032,0.196-0.038,0.277-0.092c0.236-0.158,0.466-0.335,0.699-0.504c0.084-0.061,0.166-0.127,0.252-0.176
		c0.164-0.093,0.335-0.155,0.494-0.265c0.726-0.502,1.448-1.017,2.171-1.526c0.607-0.426,1.214-0.853,1.824-1.271
		c0.194-0.133,0.291-0.344,0.289-0.679c-0.002-0.275-0.007-0.554,0.021-0.824c0.035-0.344-0.046-0.567-0.231-0.721
		c-0.093-0.077-0.186-0.156-0.282-0.223c-0.587-0.405-1.175-0.806-1.763-1.21c-0.267-0.183-0.533-0.369-0.799-0.553
		c-0.854-0.59-1.708-1.179-2.562-1.773c-0.142-0.099-0.282-0.175-0.461-0.037c-0.079,0.594-0.019,1.215-0.034,1.884
		c0.089,0.113,0.179,0.253,0.284,0.354c0.129,0.124,0.268,0.225,0.407,0.318c1.008,0.676,2.018,1.347,3.025,2.025
		c0.088,0.059,0.163,0.163,0.279,0.281c-0.164,0.141-0.281,0.26-0.407,0.347C47.227,14.647,46.225,15.35,45.214,16.017z
		 M49.61,13.028c-0.144,0.096-0.238,0.028-0.354-0.106C49.404,12.819,49.505,12.841,49.61,13.028z M46.728,11.129
		c0.06,0.03,0.1,0.051,0.14,0.072C46.82,11.323,46.777,11.333,46.728,11.129z M46.899,11.169c0.021-0.052,0.041-0.104,0.062-0.156
		c0.013,0.023,0.026,0.046,0.04,0.069C46.966,11.111,46.932,11.14,46.899,11.169z"/>
	<g>
		<path d="M82.487,20.748c0.02,0.335,0.055,0.624,0.052,0.912c-0.012,1.229-0.008,2.458-0.068,3.685
			c-0.025,0.521-0.127,1.06-0.308,1.549c-0.518,1.394-1.615,2.061-3.049,2.115c-1.263,0.048-2.53-0.02-3.795-0.049
			c-0.151-0.003-0.301-0.079-0.394-0.105c-0.035-0.375-0.085-0.672-0.087-0.97c-0.003-0.697,0.009-1.394,0.034-2.09
			c0.006-0.171,0.089-0.339,0.14-0.521c-0.034-0.172-0.11-0.375-0.109-0.577c0.007-1.302,0.03-2.603,0.049-3.905
			c0.032-2.109,0.065-4.218,0.097-6.326c0.001-0.091,0.003-0.182,0.004-0.25c0.17-0.234,0.4-0.224,0.616-0.222
			c0.825,0.009,1.65,0.03,2.474,0.042c0.585,0.009,1.168,0.004,1.747,0.135c0.659,0.15,1.244,0.446,1.702,0.924
			c0.289,0.302,0.494,0.696,0.689,1.073c0.195,0.377,0.228,0.801,0.251,1.227c0.029,0.527,0.097,1.043-0.003,1.579
			c-0.071,0.379,0.039,0.789,0.041,1.186C82.57,20.373,82.512,20.585,82.487,20.748z M80.687,20.011
			c0.304-0.061,0.304-0.061,0.173-0.33c-0.06,0.134-0.107,0.241-0.155,0.348c-0.064,0.018-0.127,0.037-0.221,0.064
			c0.055,0.12,0.096,0.211,0.138,0.302c0.02-0.006,0.039-0.012,0.059-0.019C80.684,20.255,80.686,20.133,80.687,20.011z
			 M77.611,26.572c0.457,0.007,0.829,0.066,1.179,0.004c0.404-0.07,0.768-0.27,0.839-0.752c0.039-0.27,0.099-0.54,0.106-0.811
			c0.043-1.906,0.076-3.813,0.109-5.72c0.01-0.562,0.012-1.123,0.008-1.685c-0.002-0.382-0.162-0.703-0.404-0.989
			c-0.558-0.089-1.092-0.35-1.682-0.07C77.702,19.872,77.629,23.184,77.611,26.572z M78.784,15.344
			c0.222,0.169,0.436,0.331,0.735,0.558c-0.055-0.24-0.085-0.371-0.11-0.482c-0.192-0.082-0.353-0.152-0.518-0.223
			C78.85,15.254,78.82,15.295,78.784,15.344z M81.134,18.994c0.255,0.14,0.255,0.14,0.575-0.034
			C81.531,18.837,81.353,18.786,81.134,18.994z M81.505,16.622c0.025-0.024,0.049-0.049,0.074-0.073
			c-0.072-0.115-0.144-0.23-0.204-0.325c-0.151-0.002-0.252-0.004-0.415-0.006C81.174,16.376,81.34,16.499,81.505,16.622z
			 M80.406,18.792c0.008,0.023,0.015,0.046,0.023,0.069c0.157-0.017,0.314-0.034,0.525-0.057c-0.086-0.098-0.131-0.148-0.177-0.2
			C80.642,18.671,80.524,18.731,80.406,18.792z M81.463,17.913c0.035-0.205-0.039-0.318-0.245-0.43
			C81.175,17.734,81.309,17.813,81.463,17.913z M81.587,19.759c-0.035-0.003-0.07-0.005-0.105-0.008
			c-0.016,0.084-0.032,0.167-0.048,0.251c0.031,0.007,0.063,0.013,0.094,0.02C81.547,19.934,81.567,19.846,81.587,19.759z
			 M80.966,16.742c0.024,0.024,0.049,0.048,0.073,0.072c0.05-0.078,0.101-0.156,0.152-0.234c-0.023-0.016-0.045-0.031-0.068-0.047
			C81.071,16.603,81.019,16.673,80.966,16.742z M80.636,17.02c0.017,0.033,0.033,0.065,0.05,0.098
			c0.033-0.038,0.066-0.076,0.099-0.115C80.735,17.009,80.686,17.014,80.636,17.02z M80.601,16.206
			c0.002,0.014,0.004,0.027,0.007,0.041c0.039-0.007,0.078-0.013,0.117-0.02c-0.007-0.012-0.014-0.035-0.02-0.035
			C80.671,16.194,80.636,16.201,80.601,16.206z M79.178,14.989c0.027,0.013,0.054,0.026,0.08,0.038
			c0.001-0.022,0.002-0.044,0.003-0.066C79.233,14.971,79.205,14.98,79.178,14.989z"/>
		<path d="M91.426,14.539c0.239-0.298,0.466-0.297,0.685-0.281c0.664,0.049,1.356-0.134,2.043,0.23
			c0.11,0.707,0.198,1.43,0.341,2.141c0.147,0.727,0.128,1.47,0.291,2.196c0.159,0.711,0.2,1.447,0.335,2.165
			c0.133,0.702,0.14,1.426,0.267,2.128c0.041,0,0.081,0,0.122,0c0.115-0.244,0.23-0.488,0.353-0.752
			c-0.128-0.578,0.092-1.137,0.183-1.708c0.127-0.794,0.288-1.583,0.43-2.375c0.206-1.152,0.404-2.305,0.615-3.456
			c0.06-0.326,0.202-0.473,0.51-0.478c0.641-0.009,1.283,0.014,1.925,0.03c0.048,0.001,0.094,0.052,0.156,0.088
			c0.126,0.26,0.051,0.527-0.009,0.793c-0.136,0.6-0.284,1.197-0.406,1.8c-0.134,0.662-0.234,1.331-0.369,1.993
			c-0.277,1.361-0.559,2.722-0.855,4.079c-0.249,1.142-0.531,2.278-0.781,3.42c-0.148,0.678-0.275,1.361-0.389,2.046
			c-0.041,0.246-0.11,0.46-0.348,0.665c-0.788,0.008-1.623,0.116-2.474-0.138c-0.528-2.443-0.879-4.891-1.342-7.317
			C92.245,19.38,91.846,16.937,91.426,14.539z M95.959,26.699c-0.268-0.091-0.383,0.023-0.476,0.343
			C95.687,26.895,95.815,26.803,95.959,26.699z M94.175,21.085c-0.109,0.073-0.18,0.121-0.292,0.197
			c0.129,0.064,0.208,0.104,0.351,0.175C94.209,21.299,94.197,21.22,94.175,21.085z M95.965,27.263
			c-0.031-0.024-0.061-0.049-0.092-0.073c-0.051,0.086-0.101,0.172-0.152,0.258c0.028,0.018,0.057,0.036,0.085,0.053
			C95.86,27.422,95.913,27.342,95.965,27.263z M94.586,26.795c-0.072-0.053-0.111-0.104-0.154-0.106
			c-0.04-0.003-0.082,0.047-0.185,0.112c0.069,0.037,0.114,0.083,0.157,0.08C94.459,26.876,94.511,26.833,94.586,26.795z
			 M94.183,24.072c-0.01-0.123-0.017-0.2-0.026-0.311C93.957,23.887,93.989,23.962,94.183,24.072z"/>
		<path d="M86.898,20.213c0.878,0.014,1.679,0.026,2.502,0.039c0.069,0.165,0.179,0.299,0.17,0.425
			c-0.043,0.607,0.157,1.239-0.155,1.842c-0.832,0.189-1.675-0.028-2.486,0.074c-0.334,0.308-0.238,0.703-0.267,1.047
			c-0.053,0.616-0.058,1.238-0.053,1.857c0.003,0.344,0.065,0.688,0.103,1.055c0.522,0.245,1.054,0.141,1.576,0.14
			c0.71-0.001,1.426-0.107,2.126,0.104c0.051,0.015,0.096,0.049,0.164,0.084c0.169,0.662,0.052,1.335,0.017,2.005
			c-0.005,0.094-0.099,0.184-0.141,0.258c-0.822,0.106-6.008-0.025-6.453-0.181c-0.035-0.208-0.116-0.454-0.113-0.698
			c0.031-2.439,0.078-4.878,0.116-7.317c0.027-1.723,0.046-3.447,0.069-5.171c0.006-0.458,0.014-0.915,0.02-1.322
			c0.164-0.342,0.429-0.331,0.687-0.326c1.32,0.021,2.641,0.046,3.961,0.069c0.385,0.007,0.771-0.001,1.155,0.022
			c0.229,0.013,0.456,0.072,0.727,0.118c0.103,0.797,0.145,1.539-0.131,2.317c-1.229-0.019-2.396-0.037-3.585-0.055
			c-0.222,0.551-0.176,1.103-0.149,1.602C86.793,18.856,86.582,19.546,86.898,20.213z M85.712,20.788
			c-0.014,0.022-0.028,0.043-0.042,0.065c0.136,0.107,0.272,0.215,0.432,0.341c0.089-0.138,0.155-0.242,0.287-0.448
			c-0.209,0.064-0.3,0.113-0.392,0.114C85.903,20.861,85.807,20.815,85.712,20.788z M86.39,15.88
			c-0.16,0.176-0.25,0.275-0.369,0.405c0.152,0.002,0.233,0.004,0.329,0.005C86.361,16.18,86.37,16.081,86.39,15.88z M85.554,22.113
			c-0.026-0.002-0.053-0.004-0.079-0.005c-0.018,0.056-0.059,0.117-0.048,0.166c0.015,0.066,0.072,0.122,0.111,0.182
			c0.019-0.008,0.039-0.017,0.058-0.025C85.582,22.324,85.568,22.219,85.554,22.113z M85.96,19.363
			c-0.069,0.052-0.111,0.084-0.171,0.13c0.057,0.047,0.102,0.084,0.194,0.158C85.972,19.522,85.967,19.456,85.96,19.363z
			 M84.906,18.636c-0.117-0.042-0.162-0.067-0.21-0.072c-0.027-0.003-0.083,0.029-0.082,0.042c0.003,0.045,0.025,0.088,0.04,0.132
			C84.697,18.721,84.739,18.704,84.906,18.636z M84.838,17.936c0.026-0.029,0.052-0.058,0.078-0.087
			c-0.05-0.045-0.1-0.09-0.15-0.134c-0.019,0.018-0.038,0.036-0.057,0.054C84.752,17.825,84.795,17.881,84.838,17.936z"/>
	</g>
	<g>
		<path d="M22.307,13.324c-0.306,0.277-0.239,0.594-0.289,0.873c-0.141,0.792-0.268,1.586-0.398,2.38
			c-0.15,0.919-0.294,1.84-0.444,2.759c-0.071,0.433-0.138,0.867-0.23,1.296c-0.036,0.169-0.133,0.325-0.216,0.519
			c-0.721,0.023-1.409,0.037-2.046-0.004c-0.345-0.343-0.289-0.747-0.358-1.089c-0.246-1.216-0.432-2.444-0.627-3.67
			c-0.14-0.884-0.253-1.772-0.39-2.657c-0.045-0.288-0.139-0.569-0.187-0.857c-0.128-0.775-0.194-1.564-0.375-2.326
			c-0.275-1.158-0.34-2.347-0.593-3.507c-0.046-0.21-0.038-0.431-0.051-0.594c0.164-0.253,0.365-0.269,0.571-0.269
			c0.55,0,1.101,0,1.629,0c0.311,0.16,0.416,0.391,0.455,0.717c0.137,1.144,0.315,2.282,0.474,3.424
			c0.098,0.706,0.192,1.413,0.284,2.12c0.067,0.508,0.123,1.017,0.197,1.524c0.016,0.112,0.089,0.216,0.214,0.309
			c0.119-0.752,0.238-1.504,0.358-2.256c0.043-0.27,0.085-0.541,0.132-0.81c0.124-0.701,0.264-1.399,0.375-2.102
			c0.103-0.65,0.183-1.304,0.263-1.957c0.049-0.396,0.04-0.397,0.285-0.828c0.559-0.209,1.149-0.127,1.732-0.113
			c0.229,0.005,0.365,0.15,0.41,0.375c0.004,0.018,0.005,0.036,0.008,0.054c0.146,0.919,0.296,1.837,0.435,2.757
			c0.093,0.615,0.163,1.233,0.257,1.848c0.128,0.832,0.267,1.662,0.408,2.491c0.026,0.154,0.084,0.303,0.215,0.454
			c0.036-0.114,0.09-0.226,0.107-0.343c0.185-1.281,0.369-2.563,0.543-3.846c0.12-0.888,0.221-1.779,0.335-2.668
			c0.03-0.235,0.074-0.469,0.12-0.702c0.061-0.313,0.158-0.424,0.469-0.432c0.639-0.017,1.279-0.005,1.86-0.005
			c0.261,0.218,0.225,0.448,0.189,0.661c-0.165,0.973-0.35,1.942-0.512,2.916c-0.165,0.989-0.31,1.982-0.468,2.973
			c-0.034,0.216-0.092,0.429-0.128,0.645c-0.102,0.613-0.195,1.227-0.297,1.84c-0.257,1.546-0.516,3.092-0.774,4.638
			c-0.042,0.252-0.067,0.509-0.127,0.757c-0.042,0.172-0.13,0.332-0.187,0.471c-0.987,0.166-1.735,0.116-2.303-0.165
			c-0.118-0.645-0.251-1.324-0.365-2.006c-0.166-0.992-0.33-1.985-0.471-2.98c-0.112-0.791-0.248-1.578-0.406-2.361
			C22.378,13.509,22.348,13.445,22.307,13.324z M19.192,16.868c0.046,0.034,0.093,0.068,0.139,0.102
			c0.011-0.022,0.021-0.043,0.032-0.065c-0.061-0.007-0.123-0.014-0.184-0.021c-0.05-0.068-0.092-0.144-0.153-0.201
			c-0.024-0.023-0.088-0.004-0.153-0.004c0.054,0.13,0.097,0.233,0.137,0.33C19.082,16.953,19.137,16.91,19.192,16.868z
			 M19.077,15.087c-0.043-0.232-0.066-0.354-0.092-0.493c-0.201,0.05-0.348,0.087-0.627,0.156
			C18.637,14.881,18.806,14.96,19.077,15.087z M18.657,16.581c0.266-0.134,0.49-0.153,0.514-0.454
			C18.869,16.085,18.725,16.197,18.657,16.581z M24.906,18.554c-0.096,0.028-0.173,0.063-0.253,0.07
			c-0.07,0.006-0.142-0.018-0.213-0.029c-0.006,0.02-0.012,0.04-0.017,0.061c0.147,0.098,0.294,0.196,0.476,0.317
			c0.051-0.047,0.102-0.094,0.16-0.148C24.992,18.707,24.949,18.631,24.906,18.554z M19.075,18.184
			c0.032,0.169,0.048,0.249,0.074,0.384c0.145-0.107,0.249-0.184,0.442-0.327C19.37,18.217,19.26,18.205,19.075,18.184z
			 M18.714,15.362c0.24,0.102,0.392,0.092,0.546-0.126c-0.166,0-0.288-0.004-0.409,0.003C18.825,15.24,18.801,15.282,18.714,15.362z
			 M18.516,15.441c-0.051,0.219-0.034,0.343,0.174,0.434C18.774,15.673,18.724,15.561,18.516,15.441z M22.25,9.762
			C22.116,9.695,22,9.555,21.828,9.829c0.063,0.068,0.138,0.15,0.248,0.269C22.17,9.917,22.209,9.841,22.25,9.762z M23.013,10.997
			c0.141-0.343,0.141-0.343-0.206-0.373C22.869,10.735,22.931,10.848,23.013,10.997z M18.636,17.228
			c0.15-0.218,0.112-0.332-0.085-0.441c-0.012,0.083-0.038,0.152-0.028,0.216C18.532,17.062,18.578,17.117,18.636,17.228z
			 M19.82,17.288c-0.302,0.181-0.317,0.293-0.109,0.436C19.741,17.604,19.768,17.499,19.82,17.288z M21.852,10.952
			c0.031,0.008,0.062,0.015,0.093,0.023c0.059-0.071,0.118-0.142,0.196-0.238c-0.112-0.046-0.185-0.076-0.29-0.119
			C21.852,10.76,21.852,10.856,21.852,10.952z M20.917,13.986c0.043-0.023,0.087-0.046,0.13-0.069
			c-0.058-0.075-0.117-0.151-0.175-0.226c-0.025,0.017-0.05,0.033-0.075,0.05C20.837,13.823,20.877,13.904,20.917,13.986z
			 M18.685,14.149c-0.035,0.087-0.064,0.161-0.139,0.347c0.165-0.111,0.229-0.153,0.306-0.205
			C18.785,14.234,18.744,14.2,18.685,14.149z M18.278,14.044c0,0.015-0.001,0.029-0.001,0.044c0.063,0.003,0.126,0.007,0.189,0.01
			c0.001-0.018,0.001-0.036,0.002-0.054C18.404,14.044,18.341,14.044,18.278,14.044z M20.366,17.672
			c-0.002,0.022-0.004,0.045-0.005,0.067c0.048,0,0.096,0.002,0.143-0.003c0.006-0.001,0.007-0.042,0.011-0.064
			C20.465,17.672,20.416,17.672,20.366,17.672z M25.984,14.829c-0.001-0.009-0.003-0.017-0.004-0.026
			c-0.042,0.007-0.085,0.014-0.127,0.021c0.013,0.012,0.027,0.037,0.037,0.035C25.922,14.854,25.952,14.84,25.984,14.829z
			 M19.004,17.804c-0.016-0.004-0.032-0.01-0.048-0.009c-0.006,0-0.011,0.016-0.017,0.024c0.016,0.003,0.032,0.009,0.048,0.009
			C18.993,17.828,18.998,17.813,19.004,17.804z M26.407,9.221C26.325,9.24,26.366,9.23,26.407,9.221
			C26.371,9.204,26.335,9.187,26.407,9.221z"/>
		<path d="M10.475,15.926c0.036,0.579,0.061,1.072,0.1,1.563c0.017,0.217,0.021,0.449,0.104,0.643
			c0.264,0.615,0.468,0.898,1.504,0.817c0.107-0.093,0.257-0.182,0.347-0.313c0.12-0.174,0.249-0.373,0.276-0.575
			c0.067-0.497-0.027-0.977-0.237-1.442c-0.237-0.524-0.576-0.965-0.983-1.361c-0.513-0.499-1.036-0.988-1.537-1.498
			c-0.724-0.737-1.349-1.546-1.717-2.526c-0.051-0.137-0.135-0.28-0.128-0.417c0.024-0.504-0.235-0.983-0.116-1.494
			c0.099-0.426,0.131-0.874,0.279-1.282c0.308-0.849,0.89-1.496,1.755-1.774c0.683-0.22,1.396-0.398,2.135-0.308
			c1.628,0.199,2.801,1.351,2.982,2.951c0.074,0.658,0.106,1.31,0.088,1.928c-0.156,0.292-0.388,0.319-0.635,0.313
			c-0.543-0.013-1.085-0.026-1.599-0.038c-0.284-0.14-0.306-0.362-0.302-0.617c0.008-0.493,0.027-0.988-0.167-1.462
			c-0.187-0.455-0.407-0.633-0.852-0.642c-0.449-0.009-0.762,0.212-0.942,0.62c-0.168,0.379-0.146,0.756-0.002,1.12
			c0.257,0.648,0.618,1.226,1.148,1.702c0.518,0.465,1.042,0.938,1.472,1.48c0.203,0.256,0.432,0.47,0.653,0.7
			c0.411,0.427,0.673,0.943,0.94,1.466c0.437,0.855,0.498,1.751,0.409,2.675c-0.167,1.753-1.4,2.911-2.904,3.108
			c-0.593,0.078-1.219,0.09-1.805-0.009c-0.728-0.123-1.384-0.489-1.869-1.071c-0.579-0.694-0.913-1.493-0.902-2.416
			c0.005-0.459-0.016-0.917-0.004-1.376c0.01-0.403,0.231-0.586,0.63-0.575c0.436,0.013,0.873,0.009,1.309,0.026
			C10.079,15.849,10.253,15.893,10.475,15.926z M12.837,14.753c-0.098,0.123-0.15,0.19-0.226,0.285
			c0.23,0.071,0.401,0.124,0.573,0.177c0.018-0.027,0.035-0.054,0.053-0.081C13.12,15.022,13.003,14.911,12.837,14.753z
			 M10.089,12.128c0.138,0,0.253,0,0.414,0c-0.118-0.16-0.205-0.278-0.312-0.424C10.15,11.87,10.123,11.987,10.089,12.128z
			 M13.126,15.489c-0.156-0.203-0.275-0.224-0.326,0.071C12.939,15.529,13.032,15.509,13.126,15.489z M13.709,15.087
			c-0.041,0.148-0.064,0.231-0.121,0.438c0.167-0.136,0.23-0.188,0.301-0.247C13.839,15.225,13.803,15.187,13.709,15.087z
			 M11.748,13.542c0.026-0.033,0.051-0.066,0.077-0.099c-0.089-0.054-0.179-0.107-0.268-0.161c-0.016,0.022-0.032,0.044-0.048,0.066
			C11.589,13.413,11.669,13.478,11.748,13.542z M9.11,9.867c0.014-0.128,0.037-0.185,0.02-0.226
			C9.112,9.596,9.057,9.566,9.018,9.529C9,9.546,8.982,9.563,8.964,9.58C9.001,9.654,9.039,9.728,9.11,9.867z M13.949,16.12
			c-0.133,0-0.192-0.017-0.228,0.004c-0.047,0.028-0.075,0.087-0.112,0.133c0.021,0.021,0.041,0.042,0.062,0.064
			C13.743,16.269,13.814,16.218,13.949,16.12z M10.753,12.97c0.018-0.034,0.033-0.056,0.042-0.081
			c0.002-0.006-0.019-0.019-0.029-0.029C10.762,12.893,10.758,12.925,10.753,12.97z M9.225,8.661
			C9.214,8.663,9.203,8.665,9.192,8.667C9.196,8.706,9.2,8.746,9.203,8.785C9.22,8.782,9.237,8.78,9.254,8.777
			C9.244,8.738,9.235,8.7,9.225,8.661z"/>
		<path d="M29.549,6.489c0.175-0.297,0.399-0.311,0.621-0.311c1.761,0,3.522,0,5.283,0.012
			c0.193,0.001,0.385,0.076,0.614,0.125c0.139,0.744,0.144,1.458-0.043,2.226c-0.192,0.025-0.365,0.066-0.539,0.067
			c-0.844,0.002-1.687-0.01-2.531-0.011c-0.18,0-0.359,0.021-0.565,0.034c-0.207,0.538-0.158,1.091-0.122,1.588
			c0.046,0.654-0.142,1.346,0.163,2.009c0.85,0,1.667,0,2.497,0c0.073,0.145,0.177,0.255,0.176,0.365
			c-0.005,0.627,0.181,1.269-0.102,1.896c-0.845,0.232-1.715-0.03-2.542,0.129c-0.061,0.12-0.123,0.197-0.139,0.282
			c-0.042,0.214-0.121,0.443-0.083,0.648c0.18,0.992-0.126,2.004,0.145,3.053c0.193,0.035,0.401,0.105,0.609,0.104
			c0.693-0.004,1.387-0.025,2.08-0.055c0.389-0.017,0.767-0.001,1.167,0.197c0.114,0.628,0.048,1.285,0.04,1.938
			c-0.001,0.113-0.088,0.225-0.127,0.315c-0.784,0.121-6.015,0.074-6.411-0.054c-0.175-0.223-0.19-0.493-0.19-0.77
			c0.002-1.578,0.001-3.155,0.001-4.733c0-2.567-0.001-5.134-0.001-7.702C29.548,7.383,29.549,6.925,29.549,6.489z M31.262,12.82
			c-0.01,0.025-0.021,0.05-0.031,0.075c0.138,0.104,0.275,0.208,0.437,0.331c0.084-0.144,0.145-0.25,0.268-0.461
			c-0.209,0.07-0.3,0.123-0.391,0.125C31.451,12.893,31.356,12.845,31.262,12.82z M31.509,8.22c0.298,0.095,0.397,0.006,0.329-0.21
			C31.727,8.081,31.618,8.151,31.509,8.22z M31.147,14.168c-0.15,0.079-0.239,0.178-0.011,0.25
			C31.14,14.333,31.143,14.251,31.147,14.168z M31.305,11.514c0.076,0.064,0.116,0.097,0.2,0.168
			c-0.006-0.115-0.009-0.185-0.017-0.351C31.387,11.433,31.351,11.468,31.305,11.514z M30.33,10.709
			c-0.058-0.045-0.098-0.097-0.126-0.092c-0.033,0.006-0.064,0.061-0.079,0.1c-0.005,0.015,0.043,0.071,0.059,0.068
			C30.226,10.776,30.264,10.746,30.33,10.709z M30.288,9.982c0.035-0.037,0.07-0.075,0.105-0.112
			c-0.04-0.033-0.08-0.066-0.121-0.099c-0.03,0.033-0.061,0.067-0.091,0.1C30.218,9.909,30.253,9.946,30.288,9.982z"/>
		<path d="M6.333,10.694c-0.166,0.434-0.423,0.54-0.661,0.672c-0.425,0.234-0.826,0.551-1.235,0.84
			c-0.551,0.389-1.107,0.762-1.663,1.134c-0.122,0.082-0.239,0.152-0.255,0.443c0.595,0.573,1.299,0.813,1.92,1.335
			c0.623,0.523,1.322,0.795,1.912,1.405c0.041,0.726,0.057,1.399-0.043,2.135c-0.149-0.054-0.276-0.068-0.385-0.145
			c-0.476-0.334-0.944-0.697-1.421-1.028c-0.414-0.287-0.839-0.534-1.254-0.816c-0.693-0.471-1.383-0.956-2.074-1.437
			c-0.212-0.148-0.424-0.3-0.636-0.45c-0.204-0.144-0.3-0.385-0.287-0.741c0.016-0.417,0.024-0.836,0.036-1.284
			c0.336-0.256,0.644-0.505,0.96-0.729c0.541-0.383,1.085-0.75,1.629-1.122c0.458-0.314,0.918-0.622,1.375-0.939
			C4.74,9.627,5.225,9.272,5.716,8.94c0.186-0.126,0.369-0.335,0.611-0.172C6.413,9.407,6.432,10.054,6.333,10.694z M4.614,11.136
			c-0.001-0.034-0.001-0.069-0.002-0.103c-0.068,0.012-0.136,0.024-0.228,0.04c0.043,0.066,0.06,0.111,0.074,0.109
			C4.51,11.175,4.562,11.152,4.614,11.136z M5.608,17.033c-0.005,0.001-0.011,0.003-0.016,0.004
			c0.004,0.038,0.009,0.076,0.013,0.114c0.008-0.011,0.023-0.024,0.022-0.032C5.623,17.09,5.614,17.062,5.608,17.033z M2.863,12.41
			c0.006,0.001,0.011,0.001,0.017,0.002c0.003-0.044,0.006-0.087,0.009-0.131C2.88,12.28,2.872,12.28,2.863,12.279
			C2.863,12.323,2.863,12.366,2.863,12.41z"/>
	</g>
</g>
</svg>
